<svg xmlns="http://www.w3.org/2000/svg" version="1.1" xmlns:xlink="http://www.w3.org/1999/xlink" xmlns:svgjs="http://svgjs.dev/svgjs" width="1500" height="1500" viewBox="0 0 1500 1500"><rect width="1500" height="1500" fill="#0a192f"></rect><g transform="matrix(0.6666666666666666,0,0,0.6666666666666666,249.39393939393938,438.5856950067477)"><svg viewBox="0 0 396 247" data-background-color="#0a192f" preserveAspectRatio="xMidYMid meet" height="935" width="1500" xmlns="http://www.w3.org/2000/svg" xmlns:xlink="http://www.w3.org/1999/xlink"><g id="tight-bounds" transform="matrix(1,0,0,1,0.2400000000000091,-0.09999999999999432)"><svg viewBox="0 0 395.52 247.2" height="247.2" width="395.52"><g><svg></svg></g><g><svg viewBox="0 0 395.52 247.2" height="247.2" width="395.52"><g transform="matrix(1,0,0,1,114.28601798324297,47.215199999999996)"><svg viewBox="0 0 166.94796403351404 152.7696" height="152.7696" width="166.94796403351404"><g><svg viewBox="0 0 166.94796403351404 152.7696" height="152.7696" width="166.94796403351404"><g><svg viewBox="0 0 235.4601792130704 215.46328883105178" height="152.7696" width="166.94796403351404"><g><svg viewBox="0 0 235.4601792130704 215.46328883105178" height="215.46328883105178" width="235.4601792130704"><g id="textblocktransform"><svg viewBox="0 0 235.4601792130704 215.46328883105178" height="215.46328883105178" width="235.4601792130704" id="textblock"><g><svg viewBox="0 0 235.4601792130704 151.825483872" height="151.825483872" width="235.4601792130704"><g transform="matrix(1,0,0,1,0,0)"><svg width="235.4601792130704" viewBox="3.78 -31.95 49.54 31.95" height="151.825483872" data-palette-color="#42a895"><path d="M14.48 0L6.58 0 6.58-3.5 14.33-3.5Q18.57-3.5 20.71-5.81 22.85-8.13 22.85-12.43L22.85-12.43 22.85-19.55Q22.85-23.88 20.71-26.18 18.57-28.48 14.33-28.48L14.33-28.48 6.55-28.48 6.55-31.95 14.48-31.95Q20.68-31.95 23.85-28.76 27.03-25.58 27.03-19.58L27.03-19.58 27.03-12.4Q27.03-6.43 23.85-3.21 20.68 0 14.48 0L14.48 0ZM7.88 0L3.78 0 3.78-31.95 7.88-31.95 7.88 0ZM36.52-3.5L53.32-3.5 53.32 0 31.72 0 31.72-3.28 48.35-28.5 31.87-28.5 31.87-31.95 53.15-31.95 53.15-28.73 36.52-3.5Z" opacity="1" transform="matrix(1,0,0,1,0,0)" fill="#42a895" class="wordmark-text-0" data-fill-palette-color="primary" id="text-0"></path></svg></g></svg></g><g transform="matrix(1,0,0,1,0,187.66783680256628)"><svg viewBox="0 0 235.4601792130704 27.7954520284855" height="27.7954520284855" width="235.4601792130704"><g transform="matrix(1,0,0,1,0,0)"><svg width="235.4601792130704" viewBox="-1.2 -31.86 351.56 41.5" height="27.7954520284855" data-palette-color="#42a895"><path d="M24.76-15.89L24.76-15.89Q24.05-12.7 22.78-9.8 21.51-6.91 19.56-4.72 17.6-2.54 15.03-1.27 12.45 0 9.16 0L9.16 0-1.2 0 5.54-31.86 15.89-31.86Q19.14-31.86 21.19-30.55 23.24-29.25 24.24-27.05 25.24-24.85 25.34-21.97 25.44-19.09 24.76-15.89ZM21.41-15.89L21.41-15.89Q22.75-22.14 21.13-25.57 19.51-29 15.31-29L15.31-29 8.3-29 2.76-2.86 9.74-2.86Q13.94-2.86 17.02-6.25 20.09-9.64 21.41-15.89ZM51.1-16.36L47.65 0 44.28 0 47.75-16.36Q48.14-18.31 47.69-19.38 47.24-20.46 45.94-20.46L45.94-20.46Q44.04-20.46 42.72-18.46 41.4-16.46 40.65-12.84L40.65-12.84 37.94 0 34.59 0 38.03-16.36Q38.45-18.31 37.97-19.38 37.5-20.46 36.2-20.46L36.2-20.46Q34.98-20.46 34.14-19.75 33.3-19.04 32.68-17.94 32.05-16.85 31.65-15.5 31.25-14.16 30.95-12.84L30.95-12.84 28.24 0 24.9 0 29.68-22.75 33.05-22.75 32.35-19.46Q34.25-23.29 37.74-23.29L37.74-23.29Q41.09-23.29 41.55-19.95L41.55-19.95Q43.94-23.29 46.99-23.29L46.99-23.29Q49.9-23.29 50.88-21.57 51.85-19.85 51.1-16.36L51.1-16.36ZM72.58-31.86L71.63-27.29 67.08-27.29 68.04-31.86 72.58-31.86ZM70.99-2.86L70.38 0 56.73 0 57.34-2.86 62.5-2.86 66.08-19.9 60.93-19.9 61.54-22.75 70.04-22.75 65.84-2.86 70.99-2.86ZM101.34-7.86L103.97-7.25Q102.82-3.66 99.96-1.55 97.09 0.56 93.43 0.56L93.43 0.56Q91.42 0.56 89.92-0.1 88.42-0.76 87.5-1.93 86.59-3.1 86.28-4.75 85.98-6.4 86.37-8.35L86.37-8.35 88.84-19.9 83.68-19.9 84.27-22.75 89.42-22.75 91.37-31.86 94.72-31.86 92.77-22.75 102.48-22.75 101.87-19.9 92.18-19.9 89.74-8.35Q89.47-7.1 89.63-6.01 89.79-4.91 90.34-4.08 90.89-3.25 91.8-2.77 92.72-2.29 94.04-2.29L94.04-2.29Q96.53-2.29 98.53-3.85 100.53-5.4 101.34-7.86L101.34-7.86ZM134.07-22.29L132.41-19.56Q130.78-20.46 128.26-20.46L128.26-20.46Q126.21-20.46 124.44-19.58 122.67-18.7 121.24-17.27 119.81-15.84 118.81-14 117.81-12.16 117.42-10.21L117.42-10.21 115.86-2.86 121.01-2.86 120.42 0 106.78 0 107.36-2.86 112.51-2.86 116.13-19.9 110.98-19.9 111.56-22.75 120.06-22.75 118.86-17.04Q122.52-23.29 128.92-23.29L128.92-23.29Q130.68-23.29 131.9-23.07 133.12-22.85 134.07-22.29L134.07-22.29ZM158.31-22.75L162.32-22.75 143.96 5.76Q142.52 8.15 140.61 8.9 138.71 9.64 136.61 9.64L136.61 9.64Q134.26 9.64 132.17 8.79L132.17 8.79 133.41 5.91Q134.41 6.4 135.49 6.6 136.56 6.81 137.27 6.81L137.27 6.81Q138.9 6.81 139.68 6.01 140.47 5.2 141.17 4.1L141.17 4.1 143.32 0.66 138.12-22.75 142.05-22.75 146.06-2.86 158.31-22.75ZM212.56-10.79L210.29 0 189.85 0 190.44-2.86 211.99-29 198.84-29 197.2-21.19 194.34-21.19 196.59-31.86 216.54-31.86 215.95-29 194.54-2.86 208.04-2.86 209.7-10.79 212.56-10.79ZM217.19-6.15L217.19-6.15Q217.63-8.3 219.01-9.75 220.39-11.21 222.32-12.05 224.25-12.89 226.59-13.27 228.94-13.65 231.28-13.65L231.28-13.65Q232.18-13.65 232.89-13.62 233.6-13.6 234.25-13.55 234.89-13.5 235.51-13.43 236.14-13.35 236.94-13.26L236.94-13.26 237.28-14.89Q237.65-16.55 237.15-17.63 236.65-18.7 235.72-19.32 234.79-19.95 233.7-20.2 232.6-20.46 231.79-20.46L231.79-20.46Q229.23-20.46 226.96-19.78 224.69-19.09 222.59-17.94L222.59-17.94 221.59-20.46Q223.93-21.7 226.66-22.5 229.4-23.29 232.45-23.29L232.45-23.29Q234.28-23.29 235.99-22.81 237.7-22.34 238.9-21.35 240.09-20.36 240.59-18.75 241.09-17.14 240.63-14.89L240.63-14.89 237.48 0 234.14 0 234.94-3.81Q233.79-2.71 232.51-1.88 231.23-1.05 229.91-0.52 228.59 0 227.29 0.28 225.98 0.56 224.88 0.56L224.88 0.56Q220.39 0.56 218.44-1.17 216.48-2.91 217.19-6.15ZM225.49-2.29L225.49-2.29Q227.59-2.29 229.41-2.92 231.23-3.54 232.58-4.47 233.94-5.4 234.82-6.45 235.7-7.5 235.89-8.35L235.89-8.35 236.33-10.5Q234.75-10.74 233.24-10.77 231.74-10.79 230.64-10.79L230.64-10.79Q228.84-10.79 227.12-10.55 225.4-10.3 224.04-9.75 222.69-9.2 221.73-8.33 220.78-7.45 220.54-6.15L220.54-6.15Q220.19-4.71 221.34-3.5 222.49-2.29 225.49-2.29ZM263.62-31.86L262.67-27.29 258.13-27.29 259.08-31.86 263.62-31.86ZM262.04-2.86L261.43 0 247.78 0 248.39-2.86 253.54-2.86 257.13-19.9 251.98-19.9 252.59-22.75 261.09-22.75 256.89-2.86 262.04-2.86ZM295.68-10.21L276.02-10.21Q275.63-6.59 277.43-4.44 279.22-2.29 282.89-2.29L282.89-2.29Q285.42-2.29 287.65-3.34 289.87-4.39 291.23-5.96L291.23-5.96 293.21-4.35Q291.02-1.95 288.37-0.7 285.72 0.56 282.27 0.56L282.27 0.56Q279.61 0.56 277.62-0.32 275.63-1.2 274.35-2.77 273.07-4.35 272.64-6.52 272.22-8.69 272.83-11.35L272.83-11.35Q273.36-13.94 274.62-16.13 275.88-18.31 277.72-19.91 279.56-21.51 281.92-22.4 284.28-23.29 286.91-23.29L286.91-23.29Q289.82-23.29 291.77-22.31 293.73-21.34 294.82-19.62 295.92-17.9 296.09-15.5 296.26-13.11 295.68-10.21L295.68-10.21ZM276.68-13.06L292.72-13.06Q292.97-16.8 291.2-18.63 289.43-20.46 286.28-20.46L286.28-20.46Q284.67-20.46 283.19-19.93 281.71-19.41 280.47-18.43 279.22-17.46 278.22-16.08 277.22-14.7 276.68-13.06L276.68-13.06ZM319.67-7.86L322.31-7.25Q321.16-3.66 318.3-1.55 315.43 0.56 311.76 0.56L311.76 0.56Q309.76 0.56 308.26-0.1 306.76-0.76 305.84-1.93 304.93-3.1 304.62-4.75 304.32-6.4 304.71-8.35L304.71-8.35 307.17-19.9 302.02-19.9 302.61-22.75 307.76-22.75 309.71-31.86 313.06-31.86 311.11-22.75 320.82-22.75 320.21-19.9 310.52-19.9 308.08-8.35Q307.81-7.1 307.97-6.01 308.13-4.91 308.68-4.08 309.23-3.25 310.14-2.77 311.06-2.29 312.37-2.29L312.37-2.29Q314.87-2.29 316.87-3.85 318.87-5.4 319.67-7.86L319.67-7.86ZM348.55-6.3L348.55-6.3Q348.16-4.3 346.88-2.98 345.6-1.66 343.85-0.88 342.11-0.1 340.08 0.23 338.06 0.56 336.2 0.56L336.2 0.56Q333.1 0.56 330.23-0.34 327.36-1.25 325.41-2.71L325.41-2.71 327.51-5.59Q329.71-4 331.95-3.15 334.2-2.29 336.81-2.29L336.81-2.29Q344.35-2.29 345.21-6.2L345.21-6.2Q345.4-7.15 344.9-7.75 344.4-8.35 343.43-8.73 342.45-9.11 341.16-9.33 339.86-9.55 338.4-9.74L338.4-9.74Q336.57-10.01 334.76-10.38 332.95-10.74 331.56-11.47 330.17-12.21 329.49-13.43 328.8-14.65 329.22-16.65L329.22-16.65Q329.61-18.36 330.73-19.6 331.85-20.85 333.48-21.68 335.1-22.51 337.15-22.9 339.2-23.29 341.3-23.29L341.3-23.29Q344.31-23.29 346.53-22.6 348.75-21.9 350.36-20.61L350.36-20.61 348.46-17.99Q346.82-19.36 344.92-19.91 343.01-20.46 340.67-20.46L340.67-20.46Q339.62-20.46 338.31-20.28 337.01-20.09 335.81-19.64 334.61-19.19 333.71-18.47 332.81-17.75 332.56-16.65L332.56-16.65Q332.37-15.7 332.87-15.12 333.37-14.55 334.33-14.17 335.3-13.79 336.6-13.57 337.91-13.35 339.35-13.16L339.35-13.16Q341.16-12.89 342.99-12.52 344.82-12.16 346.21-11.45 347.6-10.74 348.31-9.52 349.02-8.3 348.55-6.3Z" opacity="1" transform="matrix(1,0,0,1,0,0)" fill="#42a895" class="slogan-text-1" data-fill-palette-color="secondary" id="text-1"></path></svg></g></svg></g></svg></g></svg></g></svg></g></svg></g></svg></g><g><path d="M0 123.6c0-68.262 55.338-123.6 123.6-123.6 33.262 0 63.454 13.138 85.672 34.509l-7.163 0c-20.928-18.457-48.411-29.655-78.509-29.655-65.582 0-118.746 53.164-118.746 118.746 0 65.582 53.164 118.746 118.746 118.746 30.098 0 57.581-11.198 78.509-29.655h7.163c-22.218 21.37-52.411 34.509-85.672 34.509-68.262 0-123.6-55.338-123.6-123.6z" fill="#42a895" stroke="transparent" data-fill-palette-color="tertiary"></path></g></svg></g><defs></defs></svg><rect width="395.52" height="247.2" fill="none" stroke="none" visibility="hidden"></rect></g></svg></g></svg>